# xmcd
#
# Track frame offsets: 
#        150
#        32748
#        54978
#        70738
#        88368
#        110393
#        130703
#        155798
#        171663
#        186518
#        198848
#
# Disc length: 2884 seconds
#
# Revision: 0
# Processed by: cddbd v1.4PL0 Copyright (c) Steve Scherf et al.
# Submitted via: ExactAudioCopy v0.90a11
#
DISCID=9e0b420b
DTITLE=Baba Blues - Fishermen
DYEAR=1900
DGENRE=
TTITLE0=Fishermen
TTITLE1=I Play The Blues For You
TTITLE2=Goin´ Down Slow
TTITLE3=Rollin´and Thumblin´
TTITLE4=Wild Cat ( Studiojam )
TTITLE5=Gåshud
TTITLE6=Åh, Kvinna
TTITLE7=Du Bor I Din Biograf
TTITLE8=Där Under Finns Ett Rum
TTITLE9=Tao
TTITLE10=Det Finns Ingen Genväg
EXTD=
EXTT0=
EXTT1=
EXTT2=
EXTT3=
EXTT4=
EXTT5=
EXTT6=
EXTT7=
EXTT8=
EXTT9=
EXTT10=
PLAYORDER=
